<svg width="470" height="736" viewBox="0 0 470 736" fill="none" xmlns="http://www.w3.org/2000/svg">
<path d="M570.999 735C567.666 625.667 553 411 354.999 269C186.647 148.263 26.9991 243 2.99912 285C-21.0009 327 341.001 335 537 1" stroke="#098572" stroke-width="3" stroke-dasharray="10 8"/>
<path d="M43.129 234.088C42.2739 233.802 42.2029 232.62 43.0177 232.235L72.0776 218.489C72.8763 218.111 73.7366 218.879 73.4518 219.715L70.7576 227.627C70.6704 227.883 70.4832 228.093 70.2386 228.209L52.1029 236.787C51.8699 236.898 51.6034 236.914 51.359 236.832L43.129 234.088Z" fill="#098572"/>
<path d="M54.2533 208.248C54.0402 207.797 53.3715 207.902 53.3057 208.396L50.9762 225.877C50.9239 226.27 51.3274 226.565 51.6856 226.395L60.3465 222.299C60.5961 222.18 60.7028 221.882 60.5847 221.633L54.2533 208.248Z" fill="#098572"/>
</svg>
