<svg width="652" height="343" viewBox="0 0 652 343" fill="none" xmlns="http://www.w3.org/2000/svg">
<path d="M782.5 1C776.5 68 742.5 88 649.5 160C556.5 232 502.358 225.287 462 210C429 197.5 419 175 411.5 173.5C404 172 403 179.5 397 184C391 188.5 388.606 198.648 379 210C375.389 214.267 368 230 372.5 235.5C377 241 383.687 239.327 390 226C399 207 357 148 352 147.5C347 147 330.418 165.873 321 180C308 199.5 277.099 222.773 265 238C236 274.5 231.5 295.5 215.5 310C199.5 324.5 131.5 342 120.5 341.5C113.964 341.203 97.2752 341.255 84 341.37C79.403 341.41 75.2152 341.457 72 341.5C83.6667 326.667 110.3 294.6 123.5 285C140 273 187.5 229 210 227.5C232.154 226.023 215.5 238 215.5 238C215.5 238 204 245.55 163 243.5C113 241 47.4 255.8 1 335" stroke="#098572" stroke-width="2" stroke-dasharray="10 8"/>
</svg>
