<svg width="1142" height="443" viewBox="0 0 1142 443" fill="none" xmlns="http://www.w3.org/2000/svg">
<path d="M47 199.5C50 239 64.8 288.7 66 293.5C67.5 299.5 29.5 276 71 282C112.5 288 150.5 308.5 153.5 310.5C156.5 312.5 130 329.5 117.5 330.5C105 331.5 29.7552 294.4 16.5 258.5C4.5 226 26.9212 258 36 265.5C48.9524 276.2 96.5 303.5 110 305C123.5 306.5 74.5 173 80.5 6.0001C80.5 -7.9999 91 15.0001 89 27.5001C87 40.0001 3.49996 165.5 1.99996 212C0.499956 258.5 17.5 289.5 38 308C58.5 326.5 106.5 354 110 355.5C113.5 357 112.74 335.748 106.5 334.5C96.5 332.5 110 354.5 114.5 354.5C119 354.5 148 338.5 152.5 330C157 321.5 153.5 338.5 157.5 340.5C161.5 342.5 208 360.5 303 343C312.5 339.5 206.713 390.36 73.5 378C25 373.5 142.5 480.5 229 389C173.833 393.333 112.1 393.6 114.5 422C117.5 457.5 566 440.5 639 407C712 373.5 562 380 546 373.5C530 367 612 343 995 309C1378 275 896 243 873 222" stroke="#098572" stroke-width="2" stroke-dasharray="10 8"/>
</svg>
