<svg width="1427" height="993" viewBox="0 0 1427 993" fill="none" xmlns="http://www.w3.org/2000/svg">
<path d="M370.459 717.964C218.181 703.521 101.072 870.934 324.051 870.934C550.592 870.934 399.092 808 209.592 870.934" stroke="#098572" stroke-width="2" stroke-dasharray="10 8"/>
<path d="M46.0923 749.5C49.0923 789 63.8923 838.7 65.0923 843.5C66.5923 849.5 28.5923 826 70.0923 832C111.592 838 149.592 858.5 152.592 860.5C155.592 862.5 129.092 879.5 116.592 880.5C104.092 881.5 28.8475 844.4 15.5923 808.5C3.59229 776 26.0135 808 35.0923 815.5C48.0447 826.2 95.5922 853.5 109.092 855C122.592 856.5 73.5923 723 79.5922 556C79.5922 542 90.0922 565 88.0922 577.5C86.0922 590 2.59224 715.5 1.09224 762C-0.407759 808.5 16.5922 839.5 37.0922 858C57.5922 876.5 105.592 904 109.092 905.5C112.592 907 111.833 885.748 105.592 884.5C95.5923 882.5 109.092 904.5 113.592 904.5C118.092 904.5 147.092 888.5 151.592 880C156.092 871.5 152.592 888.5 156.592 890.5C160.592 892.5 207.092 910.5 302.092 893C311.592 889.5 205.805 940.36 72.5923 928C24.0923 923.5 141.592 1030.5 228.092 939C172.926 943.333 111.192 943.6 113.592 972C116.592 1007.5 565.092 990.5 638.092 957C711.092 923.5 561.092 930 545.092 923.5C529.092 917 611.092 893 994.092 859C1377.09 825 895.092 793 872.092 772" stroke="#098572" stroke-width="2" stroke-dasharray="10 8"/>
<path d="M1425.59 1C1419.59 68 1385.59 88 1292.59 160C1199.59 232 1145.45 225.287 1105.09 210C1072.09 197.5 1062.09 175 1054.59 173.5C1047.09 172 1046.09 179.5 1040.09 184C1034.09 188.5 1031.7 198.648 1022.09 210C1018.48 214.267 1011.09 230 1015.59 235.5C1020.09 241 1026.78 239.327 1033.09 226C1042.09 207 1000.09 148 995.092 147.5C990.092 147 973.51 165.873 964.092 180C951.092 199.5 920.191 222.773 908.092 238C879.092 274.5 874.592 295.5 858.592 310C842.592 324.5 774.592 342 763.592 341.5C757.056 341.203 740.368 341.255 727.092 341.37C722.495 341.41 718.307 341.457 715.092 341.5C726.759 326.667 753.392 294.6 766.592 285C783.092 273 830.592 229 853.092 227.5C875.247 226.023 858.592 238 858.592 238C858.592 238 847.092 245.55 806.092 243.5C756.092 241 690.492 255.8 644.092 335" stroke="#098572" stroke-width="2" stroke-dasharray="10 8"/>
</svg>
