<svg width="950" height="1222" viewBox="0 0 950 1222" fill="none" xmlns="http://www.w3.org/2000/svg">
<path d="M676.501 1221.54C654.501 1139.54 642.769 745.544 458.501 523.544C326.183 364.133 208.349 352.986 174.501 387.545C117.696 445.545 562.501 529.545 638.501 95.5448" stroke="#098572" stroke-width="3" stroke-dasharray="10 8"/>
<path d="M239.523 359.4C239.01 358.659 239.663 357.671 240.546 357.852L272.039 364.299C272.905 364.476 273.132 365.607 272.403 366.105L265.499 370.816C265.275 370.968 265 371.024 264.735 370.969L245.08 366.946C244.827 366.894 244.605 366.747 244.458 366.535L239.523 359.4Z" fill="#098572"/>
<path d="M263.93 345.409C264.03 344.921 263.432 344.603 263.083 344.959L250.727 357.543C250.45 357.826 250.595 358.304 250.984 358.383L260.37 360.305C260.64 360.36 260.905 360.186 260.96 359.915L263.93 345.409Z" fill="#098572"/>
</svg>
